<svg xmlns="http://www.w3.org/2000/svg" viewBox="0 0 98 45"><g fill="#E10098" fill-rule="nonzero"><path d="M50.2 22.5l10.5 15.4 10.5-15.4h.8c.3 0 .6.3.6.6v20.8c0 .3-.3.6-.6.6h-2.8c-.4 0-.6-.3-.6-.6V32.7l-7.4 12.1h-1l-7.4-12.1v11.2c0 .3-.3.6-.6.6h-2.8c-.3 0-.6-.3-.6-.6V23.1c0-.4.3-.6.6-.6h.8zm-21.9 0c.3 0 .6.3.6.6v12.7c0 2.6 2.2 4.6 5.4 4.6s5.6-2 5.6-4.6V23.1c0-.3.2-.6.6-.6h2.9c.3 0 .6.3.6.6V36c0 4.7-4.9 8.5-9.8 8.5s-9.5-3.8-9.5-8.5V23.1h.1c0-.3.3-.6.6-.6h2.9zm-24.8 0c.3 0 .6.3.6.6v8.2h12.1v-8.2c0-.3.2-.6.6-.6h2.9c.3 0 .6.3.6.6v20.5c0 .3-.3.6-.6.6h-2.9c-.3 0-.6-.3-.6-.6V35H4.1v8.6c0 .3-.2.6-.6.6H.6c-.3 0-.6-.2-.6-.6V23.1c0-.3.3-.6.6-.6h2.9zM81.4 1.2c1.4-.4 2.7-.2 2.9 0 .1.1-.1.8-.4.9-.3.2-.5.3-.5.4 0 .1.5.3.6.7.1.4.1 1-.3 1.3.2.3.4 1.1.3 1.4 0 0 0 .4-.6 1.1.4.6.2 1.1.2 1.3-.1.1-.4.6-.8 1 .1.4.1.6 0 .7 0 0-.1.2-.2.3-.1.1-.1.3-.1.4.1.1 0 .5-.2.6-.2.1-.3.2-.4.3-.1.1-.1.7-.1.9 3.3-1 6.5-1.5 7.1-1.6.6-.1 2.9-.4 6.2.2 0 0 1.7.3 1.9.7.1.4-.2.4-.4.5-.2 0-.7-.2-.9-.1-.1.1-.6.8-.9 1.1-.2.3-.8.4-1 .5-.2.2-.5.8-.9 1-.4.2-1 0-1.3.1-.3.2-.6.6-1 .7-.4.1-.5 0-.6 0-.1 0-.1.3-.4.4-.7.3-.9-.1-1.1 0-.2.1-.4.3-.6.4-.6.2-.7-.4-1-.3-.2 0-.3.8-.9 1-.6.2-.9-.2-1-.1-.1.1-.2.2-.3.4 0 .2-.2.2-.3.3-.1.1-.4 0-.5 0-.1.1-.1.3-.2.4-.1.1-.1.1-.2.1-.1.1 0 .3 0 .5s-.3.8-1.1 1.3 0 1.1.3 2.2.6 3.8.4 6.4c-.1 1 0 7.4.3 8.9.2.6-1.4 0-2-.4-.5-.3-.8-.9-.2-3.3v-.7c-.3 1.1-.9 2.4-1.1 2.3-.5-.4.5-4.8 1.3-6.6.4-1.1-.5-1.3-.6-1.3-6.9-2.6-5.5-5.7-7.9-7.4-.9-.6-2.6-.7-3.4-.6-.8.1-2.9.6-4.8 2s-2.1 1.6-2.1 1.6l-.0104-.0008C62.564 23.096 62.5 23.08 62.5 23c0-.1 0-.3.1-.5s3.8-3.3 4.1-3.5c.3-.2.7-.5.6-1.6 0-1.1.3-2.6 1.6-3.5 1.3-.9 3.1-.6 3.4-.5.3.1 1.1.1 1.4-.2.3-.2 1.3-5 2.6-7.4 1.3-2.4 3.5-4.1 5.1-4.6z"/><path d="M76.04 29.88c.968 0 1.768-.728 1.768-1.712 0-1-.8-1.72-1.768-1.72-.952 0-1.736.72-1.736 1.72 0 .984.784 1.712 1.736 1.712zm0-.28c-.816 0-1.408-.568-1.408-1.432 0-.872.592-1.44 1.408-1.44.832 0 1.448.568 1.448 1.44 0 .864-.616 1.432-1.448 1.432zm-.264-.496v-.464h.24c.04 0 .08 0 .112-.008l.312.472h.384l-.376-.56c.248-.12.376-.36.376-.616 0-.384-.264-.72-.816-.72h-.584v1.896h.352zm.232-.744h-.232v-.856h.232c.328 0 .464.176.464.432 0 .264-.136.424-.464.424z"/></g></svg>